<ttFont>
<head>
    <!-- Most of this table will be recalculated by the compiler -->
    <tableVersion value="1.0"/>
    <fontRevision value="1.101"/>
    <checkSumAdjustment value="0x74fb590d"/>
    <magicNumber value="0x5f0f3cf5"/>
    <flags value="00000000 00001001"/>
    <unitsPerEm value="2048"/>
    <created value="Thu Dec 30 11:04:00 2010"/>
    <modified value="Sun Apr 30 17:18:13 2017"/>
    <xMin value="-1268"/>
    <yMin value="-600"/>
    <xMax value="2701"/>
    <yMax value="2189"/>
    <macStyle value="00000000 00000001"/>
    <lowestRecPPEM value="9"/>
    <fontDirectionHint value="2"/>
    <indexToLocFormat value="0"/>
    <glyphDataFormat value="0"/>
  </head>
    <TTGlyph name="a" xMin="86" yMin="-20" xMax="1083" yMax="1141">
      <contour>
        <pt x="870" y="0" on="1"/>
        <pt x="811" y="152" on="1"/>
        <pt x="803" y="152" on="1"/>
        <pt x="726" y="55" on="0"/>
        <pt x="563" y="-20" on="0"/>
        <pt x="432" y="-20" on="1"/>
        <pt x="271" y="-20" on="0"/>
        <pt x="86" y="164" on="0"/>
        <pt x="86" y="334" on="1"/>
        <pt x="86" y="512" on="0"/>
        <pt x="335" y="681" on="0"/>
        <pt x="586" y="690" on="1"/>
        <pt x="780" y="696" on="1"/>
        <pt x="780" y="745" on="1"/>
        <pt x="780" y="915" on="0"/>
        <pt x="606" y="915" on="1"/>
        <pt x="472" y="915" on="0"/>
        <pt x="291" y="834" on="1"/>
        <pt x="190" y="1040" on="1"/>
        <pt x="383" y="1141" on="0"/>
        <pt x="618" y="1141" on="1"/>
        <pt x="843" y="1141" on="0"/>
        <pt x="1083" y="945" on="0"/>
        <pt x="1083" y="745" on="1"/>
        <pt x="1083" y="0" on="1"/>
      </contour>
      <contour>
        <pt x="780" y="518" on="1"/>
        <pt x="662" y="514" on="1"/>
        <pt x="529" y="510" on="0"/>
        <pt x="399" y="422" on="0"/>
        <pt x="399" y="332" on="1"/>
        <pt x="399" y="203" on="0"/>
        <pt x="547" y="203" on="1"/>
        <pt x="653" y="203" on="0"/>
        <pt x="780" y="325" on="0"/>
        <pt x="780" y="426" on="1"/>
      </contour>
    </TTGlyph>
    <TTGlyph name="b" xMin="160" yMin="-20" xMax="1204" yMax="1556">
      <contour>
        <pt x="782" y="1139" on="1"/>
        <pt x="980" y="1139" on="0"/>
        <pt x="1204" y="830" on="0"/>
        <pt x="1204" y="561" on="1"/>
        <pt x="1204" y="284" on="0"/>
        <pt x="973" y="-20" on="0"/>
        <pt x="774" y="-20" on="1"/>
        <pt x="577" y="-20" on="0"/>
        <pt x="465" y="123" on="1"/>
        <pt x="444" y="123" on="1"/>
        <pt x="393" y="0" on="1"/>
        <pt x="160" y="0" on="1"/>
        <pt x="160" y="1556" on="1"/>
        <pt x="465" y="1556" on="1"/>
        <pt x="465" y="1194" on="1"/>
        <pt x="465" y="1125" on="0"/>
        <pt x="453" y="973" on="1"/>
        <pt x="465" y="973" on="1"/>
        <pt x="572" y="1139" on="0"/>
      </contour>
      <contour>
        <pt x="684" y="895" on="1"/>
        <pt x="571" y="895" on="0"/>
        <pt x="467" y="756" on="0"/>
        <pt x="465" y="596" on="1"/>
        <pt x="465" y="563" on="1"/>
        <pt x="465" y="383" on="0"/>
        <pt x="572" y="227" on="0"/>
        <pt x="688" y="227" on="1"/>
        <pt x="782" y="227" on="0"/>
        <pt x="893" y="400" on="0"/>
        <pt x="893" y="565" on="1"/>
        <pt x="893" y="730" on="0"/>
        <pt x="781" y="895" on="0"/>
      </contour>
    </TTGlyph>
    <TTGlyph name="c" xMin="92" yMin="-20" xMax="989" yMax="1139">
      <contour>
        <pt x="614" y="-20" on="1"/>
        <pt x="92" y="-20" on="0"/>
        <pt x="92" y="553" on="1"/>
        <pt x="92" y="838" on="0"/>
        <pt x="376" y="1139" on="0"/>
        <pt x="641" y="1139" on="1"/>
        <pt x="835" y="1139" on="0"/>
        <pt x="989" y="1063" on="1"/>
        <pt x="899" y="827" on="1"/>
        <pt x="827" y="856" on="0"/>
        <pt x="703" y="893" on="0"/>
        <pt x="641" y="893" on="1"/>
        <pt x="403" y="893" on="0"/>
        <pt x="403" y="555" on="1"/>
        <pt x="403" y="227" on="0"/>
        <pt x="641" y="227" on="1"/>
        <pt x="729" y="227" on="0"/>
        <pt x="879" y="274" on="0"/>
        <pt x="954" y="324" on="1"/>
        <pt x="954" y="63" on="1"/>
        <pt x="880" y="16" on="0"/>
        <pt x="729" y="-20" on="0"/>
      </contour>
    </TTGlyph>
    <TTGlyph name="eight" xMin="72" yMin="-20" xMax="1098" yMax="1481">
      <contour>
        <pt x="586" y="1481" on="1"/>
        <pt x="796" y="1481" on="0"/>
        <pt x="1053" y="1290" on="0"/>
        <pt x="1053" y="1128" on="1"/>
        <pt x="1053" y="1016" on="0"/>
        <pt x="929" y="841" on="0"/>
        <pt x="791" y="772" on="1"/>
        <pt x="955" y="684" on="0"/>
        <pt x="1098" y="493" on="0"/>
        <pt x="1098" y="379" on="1"/>
        <pt x="1098" y="199" on="0"/>
        <pt x="816" y="-20" on="0"/>
        <pt x="586" y="-20" on="1"/>
        <pt x="346" y="-20" on="0"/>
        <pt x="72" y="184" on="0"/>
        <pt x="72" y="371" on="1"/>
        <pt x="72" y="496" on="0"/>
        <pt x="205" y="690" on="0"/>
        <pt x="352" y="764" on="1"/>
        <pt x="227" y="843" on="0"/>
        <pt x="117" y="1023" on="0"/>
        <pt x="117" y="1130" on="1"/>
        <pt x="117" y="1287" on="0"/>
        <pt x="377" y="1481" on="0"/>
      </contour>
      <contour>
        <pt x="358" y="389" on="1"/>
        <pt x="358" y="303" on="0"/>
        <pt x="478" y="207" on="0"/>
        <pt x="582" y="207" on="1"/>
        <pt x="697" y="207" on="0"/>
        <pt x="811" y="306" on="0"/>
        <pt x="811" y="387" on="1"/>
        <pt x="811" y="454" on="0"/>
        <pt x="698" y="571" on="0"/>
        <pt x="571" y="637" on="1"/>
        <pt x="358" y="539" on="0"/>
      </contour>
      <contour>
        <pt x="584" y="1255" on="1"/>
        <pt x="505" y="1255" on="0"/>
        <pt x="408" y="1174" on="0"/>
        <pt x="408" y="1106" on="1"/>
        <pt x="408" y="1046" on="0"/>
        <pt x="485" y="951" on="0"/>
        <pt x="586" y="901" on="1"/>
        <pt x="684" y="947" on="0"/>
        <pt x="762" y="1043" on="0"/>
        <pt x="762" y="1106" on="1"/>
        <pt x="762" y="1175" on="0"/>
        <pt x="662" y="1255" on="0"/>
      </contour>
    </TTGlyph>
    <TTGlyph name="eight.os" xMin="72" yMin="-20" xMax="1098" yMax="1481">
      <component glyphName="eight" x="0" y="0" flags="0x204"/>
    </TTGlyph>
    <TTGlyph name="five" xMin="100" yMin="-20" xMax="1077" yMax="1462">
      <contour>
        <pt x="614" y="934" on="1"/>
        <pt x="826" y="934" on="0"/>
        <pt x="1077" y="696" on="0"/>
        <pt x="1077" y="489" on="1"/>
        <pt x="1077" y="244" on="0"/>
        <pt x="775" y="-20" on="0"/>
        <pt x="494" y="-20" on="1"/>
        <pt x="250" y="-20" on="0"/>
        <pt x="100" y="59" on="1"/>
        <pt x="100" y="326" on="1"/>
        <pt x="179" y="284" on="0"/>
        <pt x="389" y="231" on="0"/>
        <pt x="483" y="231" on="1"/>
        <pt x="766" y="231" on="0"/>
        <pt x="766" y="463" on="1"/>
        <pt x="766" y="684" on="0"/>
        <pt x="473" y="684" on="1"/>
        <pt x="420" y="684" on="0"/>
        <pt x="292" y="663" on="0"/>
        <pt x="252" y="651" on="1"/>
        <pt x="129" y="717" on="1"/>
        <pt x="184" y="1462" on="1"/>
        <pt x="977" y="1462" on="1"/>
        <pt x="977" y="1200" on="1"/>
        <pt x="455" y="1200" on="1"/>
        <pt x="428" y="913" on="1"/>
        <pt x="463" y="920" on="1"/>
        <pt x="524" y="934" on="0"/>
      </contour>
    </TTGlyph>
    <TTGlyph name="five.os" xMin="100" yMin="-344" xMax="1077" yMax="1138">
      <contour>
        <pt x="614" y="610" on="1"/>
        <pt x="826" y="610" on="0"/>
        <pt x="1077" y="372" on="0"/>
        <pt x="1077" y="165" on="1"/>
        <pt x="1077" y="-80" on="0"/>
        <pt x="775" y="-344" on="0"/>
        <pt x="494" y="-344" on="1"/>
        <pt x="250" y="-344" on="0"/>
        <pt x="100" y="-265" on="1"/>
        <pt x="100" y="2" on="1"/>
        <pt x="179" y="-40" on="0"/>
        <pt x="389" y="-93" on="0"/>
        <pt x="483" y="-93" on="1"/>
        <pt x="766" y="-93" on="0"/>
        <pt x="766" y="139" on="1"/>
        <pt x="766" y="360" on="0"/>
        <pt x="473" y="360" on="1"/>
        <pt x="420" y="360" on="0"/>
        <pt x="292" y="339" on="0"/>
        <pt x="252" y="327" on="1"/>
        <pt x="129" y="393" on="1"/>
        <pt x="184" y="1138" on="1"/>
        <pt x="977" y="1138" on="1"/>
        <pt x="977" y="876" on="1"/>
        <pt x="455" y="876" on="1"/>
        <pt x="428" y="589" on="1"/>
        <pt x="463" y="596" on="1"/>
        <pt x="524" y="610" on="0"/>
      </contour>
    </TTGlyph>
    <TTGlyph name="four" xMin="35" yMin="0" xMax="1137" yMax="1462">
      <contour>
        <pt x="1137" y="303" on="1"/>
        <pt x="961" y="303" on="1"/>
        <pt x="961" y="0" on="1"/>
        <pt x="659" y="0" on="1"/>
        <pt x="659" y="303" on="1"/>
        <pt x="35" y="303" on="1"/>
        <pt x="35" y="518" on="1"/>
        <pt x="676" y="1462" on="1"/>
        <pt x="961" y="1462" on="1"/>
        <pt x="961" y="543" on="1"/>
        <pt x="1137" y="543" on="1"/>
      </contour>
      <contour>
        <pt x="659" y="543" on="1"/>
        <pt x="659" y="791" on="1"/>
        <pt x="659" y="853" on="0"/>
        <pt x="669" y="1089" on="0"/>
        <pt x="672" y="1108" on="1"/>
        <pt x="664" y="1108" on="1"/>
        <pt x="627" y="1026" on="0"/>
        <pt x="575" y="948" on="1"/>
        <pt x="307" y="543" on="1"/>
      </contour>
    </TTGlyph>
    <TTGlyph name="four.os" xMin="23" yMin="-344" xMax="1145" yMax="1139">
      <contour>
        <pt x="1145" y="27" on="1"/>
        <pt x="969" y="27" on="1"/>
        <pt x="969" y="-344" on="1"/>
        <pt x="653" y="-344" on="1"/>
        <pt x="653" y="27" on="1"/>
        <pt x="23" y="27" on="1"/>
        <pt x="23" y="231" on="1"/>
        <pt x="684" y="1139" on="1"/>
        <pt x="969" y="1139" on="1"/>
        <pt x="969" y="266" on="1"/>
        <pt x="1145" y="266" on="1"/>
      </contour>
      <contour>
        <pt x="668" y="266" on="1"/>
        <pt x="668" y="485" on="1"/>
        <pt x="668" y="535" on="0"/>
        <pt x="676" y="754" on="0"/>
        <pt x="680" y="788" on="1"/>
        <pt x="672" y="788" on="1"/>
        <pt x="647" y="740" on="0"/>
        <pt x="561" y="606" on="0"/>
        <pt x="532" y="569" on="1"/>
        <pt x="299" y="266" on="1"/>
      </contour>
    </TTGlyph>
    <TTGlyph name="nine" xMin="66" yMin="-20" xMax="1098" yMax="1479">
      <contour>
        <pt x="1098" y="838" on="1"/>
        <pt x="1098" y="406" on="0"/>
        <pt x="734" y="-20" on="0"/>
        <pt x="365" y="-20" on="1"/>
        <pt x="235" y="-20" on="0"/>
        <pt x="168" y="-6" on="1"/>
        <pt x="168" y="242" on="1"/>
        <pt x="252" y="221" on="0"/>
        <pt x="344" y="221" on="1"/>
        <pt x="499" y="221" on="0"/>
        <pt x="699" y="312" on="0"/>
        <pt x="805" y="507" on="0"/>
        <pt x="813" y="678" on="1"/>
        <pt x="801" y="678" on="1"/>
        <pt x="743" y="584" on="0"/>
        <pt x="591" y="508" on="0"/>
        <pt x="477" y="508" on="1"/>
        <pt x="286" y="508" on="0"/>
        <pt x="66" y="753" on="0"/>
        <pt x="66" y="971" on="1"/>
        <pt x="66" y="1206" on="0"/>
        <pt x="333" y="1479" on="0"/>
        <pt x="563" y="1479" on="1"/>
        <pt x="725" y="1479" on="0"/>
        <pt x="968" y="1327" on="0"/>
        <pt x="1098" y="1038" on="0"/>
      </contour>
      <contour>
        <pt x="569" y="1231" on="1"/>
        <pt x="473" y="1231" on="0"/>
        <pt x="365" y="1099" on="0"/>
        <pt x="365" y="975" on="1"/>
        <pt x="365" y="869" on="0"/>
        <pt x="463" y="745" on="0"/>
        <pt x="563" y="745" on="1"/>
        <pt x="657" y="745" on="0"/>
        <pt x="791" y="868" on="0"/>
        <pt x="791" y="948" on="1"/>
        <pt x="791" y="1067" on="0"/>
        <pt x="666" y="1231" on="0"/>
      </contour>
    </TTGlyph>
    <TTGlyph name="nine.os" xMin="66" yMin="-342" xMax="1098" yMax="1157">
      <contour>
        <pt x="1098" y="516" on="1"/>
        <pt x="1098" y="84" on="0"/>
        <pt x="734" y="-342" on="0"/>
        <pt x="365" y="-342" on="1"/>
        <pt x="235" y="-342" on="0"/>
        <pt x="168" y="-328" on="1"/>
        <pt x="168" y="-80" on="1"/>
        <pt x="252" y="-101" on="0"/>
        <pt x="344" y="-101" on="1"/>
        <pt x="499" y="-101" on="0"/>
        <pt x="699" y="-10" on="0"/>
        <pt x="805" y="185" on="0"/>
        <pt x="813" y="356" on="1"/>
        <pt x="801" y="356" on="1"/>
        <pt x="743" y="262" on="0"/>
        <pt x="591" y="186" on="0"/>
        <pt x="477" y="186" on="1"/>
        <pt x="286" y="186" on="0"/>
        <pt x="66" y="431" on="0"/>
        <pt x="66" y="649" on="1"/>
        <pt x="66" y="884" on="0"/>
        <pt x="333" y="1157" on="0"/>
        <pt x="563" y="1157" on="1"/>
        <pt x="725" y="1157" on="0"/>
        <pt x="968" y="1005" on="0"/>
        <pt x="1098" y="716" on="0"/>
      </contour>
      <contour>
        <pt x="569" y="909" on="1"/>
        <pt x="473" y="909" on="0"/>
        <pt x="365" y="777" on="0"/>
        <pt x="365" y="653" on="1"/>
        <pt x="365" y="547" on="0"/>
        <pt x="463" y="423" on="0"/>
        <pt x="563" y="423" on="1"/>
        <pt x="657" y="423" on="0"/>
        <pt x="791" y="546" on="0"/>
        <pt x="791" y="626" on="1"/>
        <pt x="791" y="745" on="0"/>
        <pt x="666" y="909" on="0"/>
      </contour>
    </TTGlyph>
    <TTGlyph name="one" xMin="121" yMin="0" xMax="846" yMax="1462">
      <contour>
        <pt x="846" y="0" on="1"/>
        <pt x="537" y="0" on="1"/>
        <pt x="537" y="846" on="1"/>
        <pt x="540" y="985" on="1"/>
        <pt x="545" y="1137" on="1"/>
        <pt x="468" y="1060" on="0"/>
        <pt x="438" y="1036" on="1"/>
        <pt x="270" y="901" on="1"/>
        <pt x="121" y="1087" on="1"/>
        <pt x="592" y="1462" on="1"/>
        <pt x="846" y="1462" on="1"/>
      </contour>
    </TTGlyph>
    <TTGlyph name="one.os" xMin="61" yMin="0" xMax="823" yMax="1139">
      <contour>
        <pt x="823" y="0" on="1"/>
        <pt x="518" y="0" on="1"/>
        <pt x="518" y="522" on="1"/>
        <pt x="521" y="661" on="1"/>
        <pt x="526" y="813" on="1"/>
        <pt x="513" y="798" on="0"/>
        <pt x="430" y="730" on="0"/>
        <pt x="406" y="713" on="1"/>
        <pt x="211" y="578" on="1"/>
        <pt x="61" y="764" on="1"/>
        <pt x="559" y="1139" on="1"/>
        <pt x="823" y="1139" on="1"/>
      </contour>
    </TTGlyph>
    <TTGlyph name="one.pnum" xMin="45" yMin="0" xMax="770" yMax="1462">
      <contour>
        <pt x="770" y="0" on="1"/>
        <pt x="461" y="0" on="1"/>
        <pt x="461" y="846" on="1"/>
        <pt x="464" y="985" on="1"/>
        <pt x="469" y="1137" on="1"/>
        <pt x="463" y="1129" on="0"/>
        <pt x="418" y="1086" on="0"/>
        <pt x="382" y="1053" on="0"/>
        <pt x="195" y="901" on="1"/>
        <pt x="45" y="1087" on="1"/>
        <pt x="516" y="1462" on="1"/>
        <pt x="770" y="1462" on="1"/>
      </contour>
    </TTGlyph>
    <TTGlyph name="seven" xMin="55" yMin="0" xMax="1104" yMax="1460">
      <contour>
        <pt x="227" y="0" on="1"/>
        <pt x="776" y="1200" on="1"/>
        <pt x="55" y="1200" on="1"/>
        <pt x="55" y="1460" on="1"/>
        <pt x="1104" y="1460" on="1"/>
        <pt x="1104" y="1266" on="1"/>
        <pt x="551" y="0" on="1"/>
      </contour>
    </TTGlyph>
    <TTGlyph name="seven.os" xMin="55" yMin="-324" xMax="1104" yMax="1136">
      <contour>
        <pt x="227" y="-324" on="1"/>
        <pt x="776" y="876" on="1"/>
        <pt x="55" y="876" on="1"/>
        <pt x="55" y="1136" on="1"/>
        <pt x="1104" y="1136" on="1"/>
        <pt x="1104" y="942" on="1"/>
        <pt x="551" y="-324" on="1"/>
      </contour>
    </TTGlyph>
    <TTGlyph name="six" xMin="72" yMin="-20" xMax="1104" yMax="1479">
      <contour>
        <pt x="72" y="621" on="1"/>
        <pt x="72" y="1055" on="0"/>
        <pt x="439" y="1479" on="0"/>
        <pt x="805" y="1479" on="1"/>
        <pt x="930" y="1479" on="0"/>
        <pt x="1001" y="1464" on="1"/>
        <pt x="1001" y="1217" on="1"/>
        <pt x="912" y="1237" on="0"/>
        <pt x="825" y="1237" on="1"/>
        <pt x="666" y="1237" on="0"/>
        <pt x="465" y="1141" on="0"/>
        <pt x="365" y="953" on="0"/>
        <pt x="356" y="780" on="1"/>
        <pt x="369" y="780" on="1"/>
        <pt x="468" y="950" on="0"/>
        <pt x="686" y="950" on="1"/>
        <pt x="882" y="950" on="0"/>
        <pt x="1104" y="704" on="0"/>
        <pt x="1104" y="487" on="1"/>
        <pt x="1104" y="253" on="0"/>
        <pt x="840" y="-20" on="0"/>
        <pt x="606" y="-20" on="1"/>
        <pt x="444" y="-20" on="0"/>
        <pt x="203" y="130" on="0"/>
        <pt x="72" y="418" on="0"/>
      </contour>
      <contour>
        <pt x="600" y="227" on="1"/>
        <pt x="699" y="227" on="0"/>
        <pt x="805" y="360" on="0"/>
        <pt x="805" y="483" on="1"/>
        <pt x="805" y="590" on="0"/>
        <pt x="706" y="713" on="0"/>
        <pt x="606" y="713" on="1"/>
        <pt x="512" y="713" on="0"/>
        <pt x="379" y="591" on="0"/>
        <pt x="379" y="510" on="1"/>
        <pt x="379" y="391" on="0"/>
        <pt x="504" y="227" on="0"/>
      </contour>
    </TTGlyph>
    <TTGlyph name="six.os" xMin="72" yMin="-20" xMax="1104" yMax="1479">
      <component glyphName="six" x="0" y="0" flags="0x204"/>
    </TTGlyph>
    <TTGlyph name="three" xMin="78" yMin="-20" xMax="1090" yMax="1483">
      <contour>
        <pt x="1047" y="1135" on="1"/>
        <pt x="1047" y="998" on="0"/>
        <pt x="881" y="806" on="0"/>
        <pt x="731" y="770" on="1"/>
        <pt x="731" y="764" on="1"/>
        <pt x="908" y="742" on="0"/>
        <pt x="1090" y="571" on="0"/>
        <pt x="1090" y="426" on="1"/>
        <pt x="1090" y="215" on="0"/>
        <pt x="784" y="-20" on="0"/>
        <pt x="500" y="-20" on="1"/>
        <pt x="262" y="-20" on="0"/>
        <pt x="78" y="59" on="1"/>
        <pt x="78" y="322" on="1"/>
        <pt x="163" y="279" on="0"/>
        <pt x="367" y="225" on="0"/>
        <pt x="467" y="225" on="1"/>
        <pt x="620" y="225" on="0"/>
        <pt x="766" y="329" on="0"/>
        <pt x="766" y="444" on="1"/>
        <pt x="766" y="547" on="0"/>
        <pt x="598" y="633" on="0"/>
        <pt x="414" y="633" on="1"/>
        <pt x="303" y="633" on="1"/>
        <pt x="303" y="870" on="1"/>
        <pt x="416" y="870" on="1"/>
        <pt x="586" y="870" on="0"/>
        <pt x="743" y="959" on="0"/>
        <pt x="743" y="1067" on="1"/>
        <pt x="743" y="1233" on="0"/>
        <pt x="535" y="1233" on="1"/>
        <pt x="463" y="1233" on="0"/>
        <pt x="314" y="1185" on="0"/>
        <pt x="223" y="1126" on="1"/>
        <pt x="80" y="1339" on="1"/>
        <pt x="280" y="1483" on="0"/>
        <pt x="557" y="1483" on="1"/>
        <pt x="784" y="1483" on="0"/>
        <pt x="1047" y="1299" on="0"/>
      </contour>
    </TTGlyph>
    <TTGlyph name="three.os" xMin="78" yMin="-344" xMax="1090" yMax="1159">
      <contour>
        <pt x="1047" y="811" on="1"/>
        <pt x="1047" y="674" on="0"/>
        <pt x="881" y="482" on="0"/>
        <pt x="731" y="446" on="1"/>
        <pt x="731" y="440" on="1"/>
        <pt x="908" y="418" on="0"/>
        <pt x="1090" y="247" on="0"/>
        <pt x="1090" y="102" on="1"/>
        <pt x="1090" y="-109" on="0"/>
        <pt x="784" y="-344" on="0"/>
        <pt x="500" y="-344" on="1"/>
        <pt x="262" y="-344" on="0"/>
        <pt x="78" y="-265" on="1"/>
        <pt x="78" y="-2" on="1"/>
        <pt x="163" y="-45" on="0"/>
        <pt x="367" y="-99" on="0"/>
        <pt x="467" y="-99" on="1"/>
        <pt x="620" y="-99" on="0"/>
        <pt x="766" y="5" on="0"/>
        <pt x="766" y="120" on="1"/>
        <pt x="766" y="223" on="0"/>
        <pt x="598" y="309" on="0"/>
        <pt x="414" y="309" on="1"/>
        <pt x="303" y="309" on="1"/>
        <pt x="303" y="546" on="1"/>
        <pt x="416" y="546" on="1"/>
        <pt x="586" y="546" on="0"/>
        <pt x="743" y="635" on="0"/>
        <pt x="743" y="743" on="1"/>
        <pt x="743" y="909" on="0"/>
        <pt x="535" y="909" on="1"/>
        <pt x="463" y="909" on="0"/>
        <pt x="314" y="861" on="0"/>
        <pt x="223" y="802" on="1"/>
        <pt x="80" y="1015" on="1"/>
        <pt x="280" y="1159" on="0"/>
        <pt x="557" y="1159" on="1"/>
        <pt x="784" y="1159" on="0"/>
        <pt x="1047" y="975" on="0"/>
      </contour>
    </TTGlyph>
    <TTGlyph name="two" xMin="78" yMin="0" xMax="1104" yMax="1483">
      <contour>
        <pt x="1104" y="0" on="1"/>
        <pt x="82" y="0" on="1"/>
        <pt x="82" y="215" on="1"/>
        <pt x="449" y="586" on="1"/>
        <pt x="612" y="753" on="0"/>
        <pt x="712" y="882" on="0"/>
        <pt x="756" y="992" on="0"/>
        <pt x="756" y="1051" on="1"/>
        <pt x="756" y="1139" on="0"/>
        <pt x="659" y="1225" on="0"/>
        <pt x="578" y="1225" on="1"/>
        <pt x="493" y="1225" on="0"/>
        <pt x="333" y="1147" on="0"/>
        <pt x="246" y="1075" on="1"/>
        <pt x="78" y="1274" on="1"/>
        <pt x="186" y="1366" on="0"/>
        <pt x="328" y="1442" on="0"/>
        <pt x="496" y="1483" on="0"/>
        <pt x="600" y="1483" on="1"/>
        <pt x="737" y="1483" on="0"/>
        <pt x="947" y="1383" on="0"/>
        <pt x="1063" y="1203" on="0"/>
        <pt x="1063" y="1087" on="1"/>
        <pt x="1063" y="986" on="0"/>
        <pt x="992" y="809" on="0"/>
        <pt x="843" y="623" on="0"/>
        <pt x="655" y="451" on="1"/>
        <pt x="467" y="274" on="1"/>
        <pt x="467" y="260" on="1"/>
        <pt x="1104" y="260" on="1"/>
      </contour>
    </TTGlyph>
    <TTGlyph name="two.os" xMin="66" yMin="0" xMax="1087" yMax="1159">
      <contour>
        <pt x="1087" y="0" on="1"/>
        <pt x="66" y="0" on="1"/>
        <pt x="66" y="207" on="1"/>
        <pt x="434" y="465" on="1"/>
        <pt x="591" y="574" on="0"/>
        <pt x="681" y="658" on="0"/>
        <pt x="725" y="738" on="0"/>
        <pt x="725" y="786" on="1"/>
        <pt x="725" y="837" on="0"/>
        <pt x="645" y="901" on="0"/>
        <pt x="561" y="901" on="1"/>
        <pt x="477" y="901" on="0"/>
        <pt x="317" y="824" on="0"/>
        <pt x="229" y="752" on="1"/>
        <pt x="68" y="950" on="1"/>
        <pt x="205" y="1069" on="0"/>
        <pt x="440" y="1159" on="0"/>
        <pt x="575" y="1159" on="1"/>
        <pt x="790" y="1159" on="0"/>
        <pt x="1032" y="983" on="0"/>
        <pt x="1032" y="823" on="1"/>
        <pt x="1032" y="703" on="0"/>
        <pt x="910" y="524" on="0"/>
        <pt x="731" y="401" on="1"/>
        <pt x="543" y="274" on="1"/>
        <pt x="543" y="260" on="1"/>
        <pt x="1087" y="260" on="1"/>
      </contour>
    </TTGlyph>
    <TTGlyph name="zero" xMin="74" yMin="-20" xMax="1096" yMax="1485">
      <contour>
        <pt x="1096" y="731" on="1"/>
        <pt x="1096" y="348" on="0"/>
        <pt x="845" y="-20" on="0"/>
        <pt x="584" y="-20" on="1"/>
        <pt x="331" y="-20" on="0"/>
        <pt x="74" y="360" on="0"/>
        <pt x="74" y="731" on="1"/>
        <pt x="74" y="1118" on="0"/>
        <pt x="324" y="1485" on="0"/>
        <pt x="584" y="1485" on="1"/>
        <pt x="837" y="1485" on="0"/>
        <pt x="1096" y="1101" on="0"/>
      </contour>
      <contour>
        <pt x="381" y="731" on="1"/>
        <pt x="381" y="462" on="0"/>
        <pt x="474" y="229" on="0"/>
        <pt x="584" y="229" on="1"/>
        <pt x="692" y="229" on="0"/>
        <pt x="788" y="465" on="0"/>
        <pt x="788" y="731" on="1"/>
        <pt x="788" y="1000" on="0"/>
        <pt x="691" y="1235" on="0"/>
        <pt x="584" y="1235" on="1"/>
        <pt x="475" y="1235" on="0"/>
        <pt x="381" y="1000" on="0"/>
      </contour>
    </TTGlyph>
    <TTGlyph name="zero.os" xMin="102" yMin="-20" xMax="1145" yMax="1159">
      <contour>
        <pt x="408" y="571" on="1"/>
        <pt x="408" y="400" on="0"/>
        <pt x="509" y="225" on="0"/>
        <pt x="625" y="225" on="1"/>
        <pt x="739" y="225" on="0"/>
        <pt x="840" y="400" on="0"/>
        <pt x="840" y="571" on="1"/>
        <pt x="840" y="743" on="0"/>
        <pt x="738" y="913" on="0"/>
        <pt x="623" y="913" on="1"/>
        <pt x="509" y="913" on="0"/>
        <pt x="408" y="742" on="0"/>
      </contour>
      <contour>
        <pt x="1145" y="571" on="1"/>
        <pt x="1145" y="289" on="0"/>
        <pt x="873" y="-20" on="0"/>
        <pt x="621" y="-20" on="1"/>
        <pt x="371" y="-20" on="0"/>
        <pt x="102" y="286" on="0"/>
        <pt x="102" y="571" on="1"/>
        <pt x="102" y="849" on="0"/>
        <pt x="377" y="1159" on="0"/>
        <pt x="627" y="1159" on="1"/>
        <pt x="874" y="1159" on="0"/>
        <pt x="1145" y="851" on="0"/>
      </contour>
    </TTGlyph>
</ttFont>
